<svg id="visual" viewBox="0 0 900 400" width="900" height="400" xmlns="http://www.w3.org/2000/svg" xmlns:xlink="http://www.w3.org/1999/xlink" version="1.1"><rect x="0" y="0" width="900" height="400" fill="#e6e6e6"></rect><path d="M0 90L18.8 88.3C37.7 86.7 75.3 83.3 112.8 80.3C150.3 77.3 187.7 74.7 225.2 73.5C262.7 72.3 300.3 72.7 337.8 73.2C375.3 73.7 412.7 74.3 450.2 77.2C487.7 80 525.3 85 562.8 87.8C600.3 90.7 637.7 91.3 675.2 87.2C712.7 83 750.3 74 787.8 71.7C825.3 69.3 862.7 73.7 881.3 75.8L900 78L900 0L881.3 0C862.7 0 825.3 0 787.8 0C750.3 0 712.7 0 675.2 0C637.7 0 600.3 0 562.8 0C525.3 0 487.7 0 450.2 0C412.7 0 375.3 0 337.8 0C300.3 0 262.7 0 225.2 0C187.7 0 150.3 0 112.8 0C75.3 0 37.7 0 18.8 0L0 0Z" fill="#009688"></path><path d="M0 46L18.8 45.3C37.7 44.7 75.3 43.3 112.8 44.5C150.3 45.7 187.7 49.3 225.2 53.7C262.7 58 300.3 63 337.8 65.7C375.3 68.3 412.7 68.7 450.2 68C487.7 67.3 525.3 65.7 562.8 61C600.3 56.3 637.7 48.7 675.2 48.2C712.7 47.7 750.3 54.3 787.8 54.5C825.3 54.7 862.7 48.3 881.3 45.2L900 42L900 0L881.3 0C862.7 0 825.3 0 787.8 0C750.3 0 712.7 0 675.2 0C637.7 0 600.3 0 562.8 0C525.3 0 487.7 0 450.2 0C412.7 0 375.3 0 337.8 0C300.3 0 262.7 0 225.2 0C187.7 0 150.3 0 112.8 0C75.3 0 37.7 0 18.8 0L0 0Z" fill="#14555f"></path><path d="M0 33L18.8 33.8C37.7 34.7 75.3 36.3 112.8 34.7C150.3 33 187.7 28 225.2 25C262.7 22 300.3 21 337.8 22.7C375.3 24.3 412.7 28.7 450.2 27.7C487.7 26.7 525.3 20.3 562.8 17.2C600.3 14 637.7 14 675.2 14.2C712.7 14.3 750.3 14.7 787.8 15.7C825.3 16.7 862.7 18.3 881.3 19.2L900 20L900 0L881.3 0C862.7 0 825.3 0 787.8 0C750.3 0 712.7 0 675.2 0C637.7 0 600.3 0 562.8 0C525.3 0 487.7 0 450.2 0C412.7 0 375.3 0 337.8 0C300.3 0 262.7 0 225.2 0C187.7 0 150.3 0 112.8 0C75.3 0 37.7 0 18.8 0L0 0Z" fill="#181c1f"></path></svg>