<svg id="visual" viewBox="0 0 900 400" width="900" height="400" xmlns="http://www.w3.org/2000/svg" xmlns:xlink="http://www.w3.org/1999/xlink" version="1.1"><rect x="0" y="0" width="900" height="400" fill="#181c1f"></rect><path d="M0 52L16.7 52.5C33.3 53 66.7 54 100 57.2C133.3 60.3 166.7 65.7 200 63.7C233.3 61.7 266.7 52.3 300 53C333.3 53.7 366.7 64.3 400 63.5C433.3 62.7 466.7 50.3 500 44.5C533.3 38.7 566.7 39.3 600 43.2C633.3 47 666.7 54 700 60C733.3 66 766.7 71 800 70.8C833.3 70.7 866.7 65.3 883.3 62.7L900 60L900 0L883.3 0C866.7 0 833.3 0 800 0C766.7 0 733.3 0 700 0C666.7 0 633.3 0 600 0C566.7 0 533.3 0 500 0C466.7 0 433.3 0 400 0C366.7 0 333.3 0 300 0C266.7 0 233.3 0 200 0C166.7 0 133.3 0 100 0C66.7 0 33.3 0 16.7 0L0 0Z" fill="#009688"></path><path d="M0 50L16.7 47C33.3 44 66.7 38 100 39C133.3 40 166.7 48 200 50.5C233.3 53 266.7 50 300 50.2C333.3 50.3 366.7 53.7 400 53.3C433.3 53 466.7 49 500 44.5C533.3 40 566.7 35 600 31.5C633.3 28 666.7 26 700 29C733.3 32 766.7 40 800 43.3C833.3 46.7 866.7 45.3 883.3 44.7L900 44L900 0L883.3 0C866.7 0 833.3 0 800 0C766.7 0 733.3 0 700 0C666.7 0 633.3 0 600 0C566.7 0 533.3 0 500 0C466.7 0 433.3 0 400 0C366.7 0 333.3 0 300 0C266.7 0 233.3 0 200 0C166.7 0 133.3 0 100 0C66.7 0 33.3 0 16.7 0L0 0Z" fill="#8cbeb6"></path><path d="M0 25L16.7 23.5C33.3 22 66.7 19 100 15.7C133.3 12.3 166.7 8.7 200 10.7C233.3 12.7 266.7 20.3 300 23.5C333.3 26.7 366.7 25.3 400 26.7C433.3 28 466.7 32 500 30.7C533.3 29.3 566.7 22.7 600 21.7C633.3 20.7 666.7 25.3 700 25C733.3 24.7 766.7 19.3 800 16C833.3 12.7 866.7 11.3 883.3 10.7L900 10L900 0L883.3 0C866.7 0 833.3 0 800 0C766.7 0 733.3 0 700 0C666.7 0 633.3 0 600 0C566.7 0 533.3 0 500 0C466.7 0 433.3 0 400 0C366.7 0 333.3 0 300 0C266.7 0 233.3 0 200 0C166.7 0 133.3 0 100 0C66.7 0 33.3 0 16.7 0L0 0Z" fill="#e6e6e6"></path></svg>