<svg id="visual" viewBox="0 0 900 480" width="900" height="480" xmlns="http://www.w3.org/2000/svg" xmlns:xlink="http://www.w3.org/1999/xlink" version="1.1"><rect x="0" y="0" width="900" height="480" fill="#181c1f"></rect><path d="M0 374L18.8 370C37.7 366 75.3 358 112.8 363.2C150.3 368.3 187.7 386.7 225.2 394.8C262.7 403 300.3 401 337.8 395.3C375.3 389.7 412.7 380.3 450.2 377C487.7 373.7 525.3 376.3 562.8 382.8C600.3 389.3 637.7 399.7 675.2 397.7C712.7 395.7 750.3 381.3 787.8 372C825.3 362.7 862.7 358.3 881.3 356.2L900 354L900 481L881.3 481C862.7 481 825.3 481 787.8 481C750.3 481 712.7 481 675.2 481C637.7 481 600.3 481 562.8 481C525.3 481 487.7 481 450.2 481C412.7 481 375.3 481 337.8 481C300.3 481 262.7 481 225.2 481C187.7 481 150.3 481 112.8 481C75.3 481 37.7 481 18.8 481L0 481Z" fill="#009688"></path><path d="M0 421L18.8 421.7C37.7 422.3 75.3 423.7 112.8 424.8C150.3 426 187.7 427 225.2 428.5C262.7 430 300.3 432 337.8 427.8C375.3 423.7 412.7 413.3 450.2 406C487.7 398.7 525.3 394.3 562.8 398.7C600.3 403 637.7 416 675.2 421.5C712.7 427 750.3 425 787.8 425.2C825.3 425.3 862.7 427.7 881.3 428.8L900 430L900 481L881.3 481C862.7 481 825.3 481 787.8 481C750.3 481 712.7 481 675.2 481C637.7 481 600.3 481 562.8 481C525.3 481 487.7 481 450.2 481C412.7 481 375.3 481 337.8 481C300.3 481 262.7 481 225.2 481C187.7 481 150.3 481 112.8 481C75.3 481 37.7 481 18.8 481L0 481Z" fill="#8cbeb6"></path><path d="M0 446L18.8 443.7C37.7 441.3 75.3 436.7 112.8 434.8C150.3 433 187.7 434 225.2 439C262.7 444 300.3 453 337.8 451.5C375.3 450 412.7 438 450.2 437C487.7 436 525.3 446 562.8 446.7C600.3 447.3 637.7 438.7 675.2 435.5C712.7 432.3 750.3 434.7 787.8 432.7C825.3 430.7 862.7 424.3 881.3 421.2L900 418L900 481L881.3 481C862.7 481 825.3 481 787.8 481C750.3 481 712.7 481 675.2 481C637.7 481 600.3 481 562.8 481C525.3 481 487.7 481 450.2 481C412.7 481 375.3 481 337.8 481C300.3 481 262.7 481 225.2 481C187.7 481 150.3 481 112.8 481C75.3 481 37.7 481 18.8 481L0 481Z" fill="#e6e6e6"></path></svg>