<svg id="visual" viewBox="0 0 900 100" width="900" height="100" xmlns="http://www.w3.org/2000/svg" xmlns:xlink="http://www.w3.org/1999/xlink" version="1.1"><rect x="0" y="0" width="900" height="100" fill="#e6e6e6"></rect><path d="M0 42L25 38.3C50 34.7 100 27.3 150 21.5C200 15.7 250 11.3 300 16.8C350 22.3 400 37.7 450 42C500 46.3 550 39.7 600 34.2C650 28.7 700 24.3 750 25.3C800 26.3 850 32.7 875 35.8L900 39L900 101L875 101C850 101 800 101 750 101C700 101 650 101 600 101C550 101 500 101 450 101C400 101 350 101 300 101C250 101 200 101 150 101C100 101 50 101 25 101L0 101Z" fill="#009688"></path><path d="M0 54L25 52.5C50 51 100 48 150 49.3C200 50.7 250 56.3 300 56.2C350 56 400 50 450 48.7C500 47.3 550 50.7 600 49.5C650 48.3 700 42.7 750 42.5C800 42.3 850 47.7 875 50.3L900 53L900 101L875 101C850 101 800 101 750 101C700 101 650 101 600 101C550 101 500 101 450 101C400 101 350 101 300 101C250 101 200 101 150 101C100 101 50 101 25 101L0 101Z" fill="#14555f"></path><path d="M0 56L25 60.5C50 65 100 74 150 74.8C200 75.7 250 68.3 300 65.7C350 63 400 65 450 68.8C500 72.7 550 78.3 600 78C650 77.7 700 71.3 750 71C800 70.7 850 76.3 875 79.2L900 82L900 101L875 101C850 101 800 101 750 101C700 101 650 101 600 101C550 101 500 101 450 101C400 101 350 101 300 101C250 101 200 101 150 101C100 101 50 101 25 101L0 101Z" fill="#181c1f"></path></svg>