<svg id="visual" viewBox="0 0 900 80" width="900" height="80" xmlns="http://www.w3.org/2000/svg" xmlns:xlink="http://www.w3.org/1999/xlink" version="1.1"><rect x="0" y="0" width="900" height="80" fill="#e6e6e6"></rect><path d="M0 34L16.7 29.5C33.3 25 66.7 16 100 12.8C133.3 9.7 166.7 12.3 200 18.5C233.3 24.7 266.7 34.3 300 35.7C333.3 37 366.7 30 400 26C433.3 22 466.7 21 500 22C533.3 23 566.7 26 600 24.8C633.3 23.7 666.7 18.3 700 18.8C733.3 19.3 766.7 25.7 800 24.7C833.3 23.7 866.7 15.3 883.3 11.2L900 7L900 81L883.3 81C866.7 81 833.3 81 800 81C766.7 81 733.3 81 700 81C666.7 81 633.3 81 600 81C566.7 81 533.3 81 500 81C466.7 81 433.3 81 400 81C366.7 81 333.3 81 300 81C266.7 81 233.3 81 200 81C166.7 81 133.3 81 100 81C66.7 81 33.3 81 16.7 81L0 81Z" fill="#009688"></path><path d="M0 55L16.7 52.3C33.3 49.7 66.7 44.3 100 42.2C133.3 40 166.7 41 200 39.2C233.3 37.3 266.7 32.7 300 36.3C333.3 40 366.7 52 400 53.2C433.3 54.3 466.7 44.7 500 39C533.3 33.3 566.7 31.7 600 31.8C633.3 32 666.7 34 700 34.2C733.3 34.3 766.7 32.7 800 36.5C833.3 40.3 866.7 49.7 883.3 54.3L900 59L900 81L883.3 81C866.7 81 833.3 81 800 81C766.7 81 733.3 81 700 81C666.7 81 633.3 81 600 81C566.7 81 533.3 81 500 81C466.7 81 433.3 81 400 81C366.7 81 333.3 81 300 81C266.7 81 233.3 81 200 81C166.7 81 133.3 81 100 81C66.7 81 33.3 81 16.7 81L0 81Z" fill="#14555f"></path><path d="M0 62L16.7 59.3C33.3 56.7 66.7 51.3 100 49C133.3 46.7 166.7 47.3 200 47.8C233.3 48.3 266.7 48.7 300 48.2C333.3 47.7 366.7 46.3 400 48.3C433.3 50.3 466.7 55.7 500 56C533.3 56.3 566.7 51.7 600 50.7C633.3 49.7 666.7 52.3 700 55.5C733.3 58.7 766.7 62.3 800 63C833.3 63.7 866.7 61.3 883.3 60.2L900 59L900 81L883.3 81C866.7 81 833.3 81 800 81C766.7 81 733.3 81 700 81C666.7 81 633.3 81 600 81C566.7 81 533.3 81 500 81C466.7 81 433.3 81 400 81C366.7 81 333.3 81 300 81C266.7 81 233.3 81 200 81C166.7 81 133.3 81 100 81C66.7 81 33.3 81 16.7 81L0 81Z" fill="#181c1f"></path></svg>