<svg id="visual" viewBox="0 0 900 600" width="900" height="600" xmlns="http://www.w3.org/2000/svg" xmlns:xlink="http://www.w3.org/1999/xlink" version="1.1"><rect x="0" y="0" width="900" height="600" fill="#e6e6e6"></rect><path d="M0 508L30 508.5C60 509 120 510 180 516.2C240 522.3 300 533.7 360 533.8C420 534 480 523 540 514.2C600 505.3 660 498.7 720 498.7C780 498.7 840 505.3 870 508.7L900 512L900 601L870 601C840 601 780 601 720 601C660 601 600 601 540 601C480 601 420 601 360 601C300 601 240 601 180 601C120 601 60 601 30 601L0 601Z" fill="#009688"></path><path d="M0 534L30 535.8C60 537.7 120 541.3 180 544.2C240 547 300 549 360 547.3C420 545.7 480 540.3 540 538C600 535.7 660 536.3 720 543.2C780 550 840 563 870 569.5L900 576L900 601L870 601C840 601 780 601 720 601C660 601 600 601 540 601C480 601 420 601 360 601C300 601 240 601 180 601C120 601 60 601 30 601L0 601Z" fill="#14555f"></path><path d="M0 558L30 561.7C60 565.3 120 572.7 180 573.5C240 574.3 300 568.7 360 563.2C420 557.7 480 552.3 540 556.8C600 561.3 660 575.7 720 577.2C780 578.7 840 567.3 870 561.7L900 556L900 601L870 601C840 601 780 601 720 601C660 601 600 601 540 601C480 601 420 601 360 601C300 601 240 601 180 601C120 601 60 601 30 601L0 601Z" fill="#181c1f"></path></svg>